<?xml version="1.0" encoding="UTF-8"?>
<svg width="343px" height="60px" viewBox="0 0 343 60" version="1.1" xmlns="http://www.w3.org/2000/svg" xmlns:xlink="http://www.w3.org/1999/xlink">
    <!-- Generator: Sketch 42 (36781) - http://www.bohemiancoding.com/sketch -->
    <title>Beacon Logo</title>
    <desc>Created with Sketch.</desc>
    <defs></defs>
    <g id="Page-1" stroke="none" stroke-width="1" fill="none" fill-rule="evenodd">
        <g id="Desktop-HD-Copy-3" transform="translate(-40.000000, -20.000000)">
            <g id="Beacon-Logo" transform="translate(40.000000, 20.000000)">
                <path d="M82.1386813,23.7540659 L84.6718681,23.7540659 C87.8643956,23.7540659 91.7512088,24.3441758 91.7512088,28.4043956 C91.7512088,32.3953846 88.3153846,33.1931868 85.0536264,33.1931868 L82.1386813,33.1931868 L82.1386813,23.7540659 Z M79.2210989,35.9017582 L85.2942857,35.9017582 C90.4648352,35.9017582 94.6641758,33.8195604 94.6641758,28.6140659 C94.6641758,25.4907692 92.8246154,22.68 89.7013187,21.9164835 C91.3923272,20.7837156 92.3667168,18.8481952 92.2694505,16.8151648 C92.2694505,11.4705495 88.2784615,9.73582418 83.523956,9.73582418 L79.2210989,9.73582418 L79.2210989,35.9017582 Z M82.136044,12.4424176 L83.283956,12.4424176 C86.8582418,12.4424176 89.3571429,12.8591209 89.3571429,16.8151648 C89.3571429,20.8753846 86.5463736,21.2571429 83.2496703,21.2571429 L82.1386813,21.2571429 L82.136044,12.4424176 Z M113.125055,28.3364835 C113.406593,23.4764835 110.63011,19.1386813 105.38967,19.1386813 C100.288352,19.1386813 97.4775824,23.1296703 97.4775824,27.9534066 C97.4775824,32.638022 100.600879,36.3514286 105.45956,36.3514286 C108.644543,36.4097684 111.577389,34.6255628 112.98989,31.7703297 L110.63011,30.4167033 C109.554066,32.3597802 108.027692,33.7826374 105.667253,33.7826374 C104.225996,33.800603 102.839954,33.2290173 101.830321,32.2003367 C100.820688,31.1716562 100.275104,29.7751745 100.32,28.3345055 L113.125055,28.3364835 Z M100.462418,25.9747253 C100.885953,23.5500451 102.963869,21.7625848 105.424615,21.7061538 C107.847315,21.7731387 109.869476,23.5756267 110.213407,25.9747253 L100.462418,25.9747253 Z M123.713407,21.7061538 C127.149231,21.7061538 129.196484,24.3435165 129.196484,27.6059341 C129.196484,30.9026374 127.322637,33.7832967 123.748352,33.7832967 C120.278242,33.7832967 118.403736,30.7641758 118.403736,27.5716484 C118.403736,24.5175824 120.485934,21.7061538 123.713407,21.7061538 L123.713407,21.7061538 Z M131.836484,19.5896703 L129.057363,19.5896703 L129.057363,21.9145055 L128.988132,21.9145055 C127.658382,20.1710308 125.593569,19.1449595 123.400879,19.138022 C118.507912,19.138022 115.554725,23.129011 115.554725,27.7793407 C115.554725,32.2905495 118.573846,36.3507692 123.362637,36.3507692 C125.562416,36.4028843 127.653578,35.3961737 128.984835,33.6441758 L129.054066,33.6441758 L129.054066,35.9017582 L131.836484,35.9017582 L131.836484,19.5896703 Z M149.084176,20.7698901 C147.614204,19.7221436 145.857191,19.1525877 144.052088,19.1386813 C141.751032,19.1099423 139.534323,20.0040008 137.8971,21.6211536 C136.259877,23.2383064 135.338545,25.4438199 135.338901,27.7450549 C135.295195,30.0528249 136.197497,32.2780146 137.836155,33.9035957 C139.474812,35.5291768 141.70716,36.4136221 144.014505,36.3514286 C145.869321,36.3477087 147.676783,35.765504 149.185055,34.6859341 L149.185055,30.9718681 L149.115824,30.9718681 C147.762198,32.7415385 146.131648,33.7826374 143.806154,33.7826374 C140.405275,33.7826374 138.183956,30.9718681 138.183956,27.7443956 C138.128263,26.1745321 138.708228,24.648584 139.792556,23.5120072 C140.876883,22.3754303 142.37387,21.7243468 143.944615,21.7061538 C146.130989,21.7061538 147.727253,22.8164835 149.010989,24.4476923 L149.08022,24.4476923 L149.084176,20.7698901 Z M160.605495,36.3514286 C162.882654,36.3641465 165.070227,35.4651724 166.680447,33.8549526 C168.290667,32.2447328 169.189641,30.0571592 169.176923,27.78 C169.176923,23.0461307 165.339364,19.2085714 160.605495,19.2085714 C155.871625,19.2085714 152.034066,23.0461307 152.034066,27.78 C152.021354,30.0566995 152.919968,32.2438683 154.529615,33.8540108 C156.139262,35.4641532 158.326154,36.3634395 160.602857,36.3514286 L160.605495,36.3514286 Z M160.605495,21.7068132 C164.041319,21.7068132 166.401099,24.4483516 166.401099,27.7450549 C166.401099,31.0767033 164.041319,33.7832967 160.605495,33.7832967 C157.16967,33.7832967 154.80989,31.0767033 154.80989,27.7450549 C154.807253,24.4476923 157.167033,21.7061538 160.602857,21.7061538 L160.605495,21.7068132 Z M175.77033,19.5896703 L172.993846,19.5896703 L172.993846,35.9017582 L175.77033,35.9017582 L175.77033,28.1610989 C175.77033,25.2461538 176.012967,21.7061538 179.830549,21.7061538 C183.056044,21.7061538 183.265055,24.0659341 183.265055,26.703956 L183.265055,35.9017582 L186.041538,35.9017582 L186.041538,26.218022 C186.041538,22.4004396 185.00044,19.1386813 180.489231,19.1386813 C178.626741,19.1041108 176.874572,20.0193224 175.838901,21.5676923 L175.76967,21.5676923 L175.77033,19.5896703 Z M217.09978,28.4736264 L220.188132,35.9017582 L223.415604,35.9017582 L211.650989,8.48637363 L199.574505,35.9017582 L202.767033,35.9017582 L205.925275,28.4749451 L217.09978,28.4736264 Z M215.954505,25.767033 L207.104835,25.767033 L211.581758,15.2835165 L215.954505,25.767033 Z M238.372088,20.7698901 C236.902097,19.7221823 235.145096,19.1526304 233.34,19.1386813 C231.039512,19.1108309 228.823656,20.0052826 227.18715,21.6223385 C225.550645,23.2393943 224.629765,25.4443985 224.63011,27.7450549 C224.586369,30.0534129 225.489117,32.2791312 227.128502,33.9048155 C228.767886,35.5304998 231.001101,36.4145392 233.309011,36.3514286 C235.163827,36.3477087 236.971289,35.765504 238.47956,34.6859341 L238.47956,30.9718681 L238.41033,30.9718681 C237.056703,32.7415385 235.426154,33.7826374 233.100659,33.7826374 C229.69978,33.7826374 227.478462,30.9718681 227.478462,27.7443956 C227.422776,26.1749841 228.002384,24.6494389 229.08614,23.5129412 C230.169895,22.3764435 231.666198,21.7250514 233.236484,21.7061538 C235.422857,21.7061538 237.019121,22.8164835 238.302857,24.4476923 L238.372088,24.4476923 L238.372088,20.7698901 Z M249.547253,21.7061538 C252.983077,21.7061538 255.03033,24.3435165 255.03033,27.6059341 C255.03033,30.9026374 253.156484,33.7832967 249.582198,33.7832967 C246.112088,33.7832967 244.238242,30.7641758 244.238242,27.5716484 C244.237582,24.5175824 246.31978,21.7061538 249.547253,21.7061538 L249.547253,21.7061538 Z M257.667692,19.5896703 L254.891209,19.5896703 L254.891209,21.9145055 L254.821978,21.9145055 C253.492229,20.1710308 251.427415,19.1449595 249.234725,19.138022 C244.341758,19.138022 241.388571,23.129011 241.388571,27.7793407 C241.388571,32.2905495 244.407692,36.3507692 249.196484,36.3507692 C251.396262,36.4028843 253.487424,35.3961737 254.818681,33.6441758 L254.887912,33.6441758 L254.887912,35.9017582 L257.664396,35.9017582 L257.667692,19.5896703 Z M269.572747,21.7061538 C273.008571,21.7061538 275.055824,24.3435165 275.055824,27.6059341 C275.055824,30.9026374 273.181978,33.7832967 269.607692,33.7832967 C266.137582,33.7832967 264.263736,30.7641758 264.263736,27.5716484 C264.261099,24.5175824 266.341978,21.7061538 269.572747,21.7061538 L269.572747,21.7061538 Z M274.913407,35.9017582 L277.68989,35.9017582 L277.68989,7.26989011 L274.913407,7.26989011 L274.913407,21.9145055 L274.847473,21.9145055 C273.517723,20.1710308 271.45291,19.1449595 269.26022,19.138022 C264.367253,19.138022 261.414066,23.129011 261.414066,27.7793407 C261.414066,32.2905495 264.433187,36.3507692 269.221978,36.3507692 C271.41834,36.3871846 273.502778,35.3837114 274.844176,33.6441758 L274.913407,33.6441758 L274.913407,35.9017582 Z M297.021099,28.3345055 C297.298681,23.4758242 294.522198,19.138022 289.282418,19.138022 C284.181099,19.138022 281.37033,23.129011 281.37033,27.9527473 C281.37033,32.6373626 284.493626,36.3507692 289.352308,36.3507692 C292.537246,36.4089466 295.470012,34.6247898 296.882637,31.7696703 L294.522857,30.416044 C293.446813,32.3591209 291.91978,33.781978 289.56,33.781978 C288.119199,33.7992184 286.733849,33.2273134 285.724794,32.198715 C284.715739,31.1701165 284.170512,29.7740519 284.215385,28.3338462 L297.021099,28.3345055 Z M284.354505,25.9747253 C284.77809,23.5498068 286.856366,21.7622744 289.317363,21.7061538 C291.740063,21.7731387 293.762224,23.5756267 294.106154,25.9747253 L284.354505,25.9747253 Z M303.614505,19.5896703 L300.838681,19.5896703 L300.838681,35.9017582 L303.615165,35.9017582 L303.615165,27.4674725 C303.615165,25.0035165 303.961978,21.7068132 307.224396,21.7068132 C309.896703,21.7068132 310.139341,24.6217582 310.139341,26.6347253 L310.139341,35.9017582 L312.915824,35.9017582 L312.915824,27.2591209 C312.915824,24.7951648 313.262637,21.7068132 316.455824,21.7068132 C319.301538,21.7068132 319.44,24.3092308 319.44,26.4263736 L319.44,35.9017582 L322.216484,35.9017582 L322.216484,25.9747253 C322.216484,22.5389011 321.175385,19.138022 317.010989,19.138022 C315.005244,19.0670806 313.1238,20.1078199 312.118022,21.8446154 C311.248517,20.1605964 309.50189,19.1126715 307.606813,19.138022 C306.001733,19.1442483 304.515746,19.9859246 303.685055,21.3593407 L303.615824,21.3593407 L303.614505,19.5896703 Z M332.279341,34.3734066 L327.004615,45.061978 L330.162857,45.061978 L342.204396,19.5896703 L339.046154,19.5896703 L333.771429,31.2843956 L328.010769,19.5896703 L324.783297,19.5896703 L332.279341,34.3734066 Z" id="Beacon_Academy" stroke-opacity="0" stroke="#000000" fill="#FFFFFF"></path>
                <g id="group-4" fill="#CA5627">
                    <g id="group" transform="translate(18.583516, 3.590110)">
                        <path d="M3.37912088,0.210989011 C6.75824176,3.8010989 1.90087912,6.96857143 2.32417582,11.4032967 C1.47956044,9.92505495 0.00131868132,8.23846154 0.214285714,6.54593407 C0.844615385,4.22307692 2.95648352,4.64571429 3.37912088,0.210989011 L3.37912088,0.210989011 Z" id="path"></path>
                        <path d="M2.32285714,11.6149451 L2.32285714,11.6149451 C2.2023344,11.5052681 2.1270935,11.3545512 2.11186813,11.1923077 C1.26725275,9.92505495 0.00197802198,8.23582418 0.00197802198,6.54659341 L0.00197802198,6.54659341 C0.193168091,5.72800118 0.636406599,4.99003904 1.26923077,4.4367033 C2.10989011,3.59010989 2.95648352,2.74549451 3.16483516,0.210989011 C3.163749,0.154705296 3.18562917,0.100406019 3.22543518,0.0606000119 C3.26524118,0.0207940052 3.31954046,-0.00108616469 3.37582418,1.84897128e-15 L3.58681319,1.84897128e-15 C5.6967033,2.10989011 4.85406593,4.22373626 3.7978022,6.54659341 C3.16417582,8.02483516 2.31956044,9.71142857 2.31956044,11.6149451 C2.53054945,11.403956 2.53054945,11.6149451 2.31956044,11.6149451 L2.32285714,11.6149451 Z M0.212967033,6.54659341 C0.212967033,8.02483516 1.26791209,9.50307692 2.11384615,10.7703297 C2.11384615,9.0810989 2.74747253,7.81384615 3.3810989,6.3356044 C4.22571429,4.22571429 5.07032967,2.32351648 3.3810989,0.422637363 C3.17010989,2.95648352 2.32615385,3.80175824 1.48021978,4.43472527 C1.05494505,5.27934066 0.633626374,5.70197802 0.210989011,6.54659341 L0.212967033,6.54659341 Z" id="path-2"></path>
                    </g>
                    <g id="group-2" transform="translate(20.906374, 0.000000)">
                        <path d="M16.049011,0.210989011 C14.1481319,3.37582418 12.4589011,6.54659341 12.0369231,10.136044 C10.9813187,19.2171429 17.1052747,26.189011 7.39120879,32.5186813 C5.28131868,33.7859341 2.53384615,35.2641758 0.210989011,35.6835165 C8.02483516,26.189011 -3.59010989,14.3597802 16.049011,0.210989011 L16.049011,0.210989011 Z" id="path-3"></path>
                        <path d="M0.210989011,35.6887912 L0.210989011,35.6887912 L0,35.4778022 C2.95648352,31.8876923 3.16483516,27.8756044 3.16483516,23.6518681 C3.37912088,16.6813187 3.59010989,8.86945055 15.838022,0 L16.049011,0 L16.049011,0.210989011 C14.5714286,3.16483516 12.8815385,6.3356044 12.2485714,10.1367033 C11.8259341,13.0931868 12.2485714,15.627033 12.6712088,18.1615385 C13.5164835,23.4408791 14.1487912,28.0879121 7.39120879,32.5213187 C4.64571429,34.4221978 2.32285714,35.4778022 0.210989011,35.6861538 L0.210989011,35.6887912 Z M15.416044,0.844615385 C4.00945055,9.29142857 3.8010989,16.8942857 3.59010989,23.6518681 C3.37912088,27.8756044 3.37912088,31.6767033 0.633626374,35.2668132 C3.05069615,34.7096284 5.34249001,33.7060601 7.39120879,32.3076923 C13.9378022,28.0879121 13.3041758,23.6518681 12.4615385,18.3725275 C11.8889843,15.6664881 11.7463564,12.8871369 12.0389011,10.1367033 C12.4615385,6.54659341 13.9378022,3.59010989 15.416044,0.844615385 L15.416044,0.844615385 Z" id="path-4"></path>
                    </g>
                    <g id="group-3" transform="translate(37.396484, 1.478242)">
                        <path d="M9.06263736,0.422637363 C9.69626374,10.1367033 2.93802198,11.403956 1.88307692,19.0061538 C-0.226813187,16.6832967 -0.43978022,11.403956 1.46043956,9.0810989 C4.20593407,5.49098901 7.5843956,5.28 9.06263736,0.422637363 L9.06263736,0.422637363 Z" id="path-5"></path>
                        <path d="M1.88307692,19.0061538 L1.88307692,19.0061538 C-0.43978022,16.6813187 -0.651428571,11.1923077 1.46043956,8.65846154 C2.40681087,7.56280638 3.46780648,6.57165965 4.62527473,5.70197802 C6.3178022,4.43472527 8.00703297,3.16483516 9.0632967,0.210989011 L9.27428571,1.85464301e-15 C9.33056943,-0.00108616469 9.38486871,0.0207940052 9.42467471,0.0606000119 C9.46448072,0.100406019 9.48636089,0.154705296 9.48527473,0.210989011 C9.90791209,5.91296703 7.79604396,8.65846154 5.68417582,11.4065934 C3.99494505,13.7294505 2.51934066,15.8413187 1.88307692,19.0087912 L1.88307692,19.0061538 Z M9.0632967,1.26989011 C8.00835165,3.80373626 6.52945055,4.86 4.83956044,6.12725275 C3.6820922,6.99693438 2.62109658,7.98808111 1.67472527,9.08373626 C-0.226153846,11.4065934 -0.0145054945,16.263956 1.67472527,18.5868132 C2.30241758,15.6263736 3.7832967,13.5164835 5.05054945,11.4065934 C7.16241758,8.86945055 9.0632967,6.12395604 9.0632967,1.26725275 L9.0632967,1.26989011 Z" id="path-6"></path>
                    </g>
                    <g id="group-4-2" transform="translate(38.645275, 8.235824)">
                        <path d="M14.9934066,0.210989011 C14.1487912,2.74483516 11.6175824,5.06835165 11.6175824,7.81318681 C11.4065934,14.7817582 15.8413187,18.1608791 6.33824176,23.0175824 C4.86,23.8621978 1.90351648,25.1274725 0.214285714,24.7068132 C10.136044,16.4716484 0.633626374,10.3476923 14.9934066,0.210989011 L14.9934066,0.210989011 Z" id="path-7"></path>
                        <path d="M0.633626374,25.1301099 L0.210989011,25.1301099 C0.154705296,25.1311961 0.100406019,25.1093159 0.0606000119,25.0695099 C0.0207940052,25.0297039 -0.00108616469,24.9754046 3.64042767e-13,24.9191209 L3.64042767e-13,24.7081319 C4.43472527,20.907033 4.85736264,17.7395604 5.49032967,14.1494505 C6.12395604,9.92505495 6.96857143,5.49032967 14.7824176,0 L14.9934066,0 L14.9934066,0.210989011 C14.5707692,1.26593407 13.9384615,2.32087912 13.5151648,3.16747253 C12.6705495,4.64571429 11.6142857,6.12395604 11.6142857,7.81318681 C11.6322009,9.51064484 11.773452,11.2045567 12.0369231,12.8815385 C12.6705495,16.8936264 13.3041758,19.6391209 6.33494505,23.2292308 C6.12395604,23.4408791 2.74549451,25.1301099 0.633626374,25.1301099 L0.633626374,25.1301099 Z M0.633626374,24.7074725 C2.65668688,24.5279982 4.60954566,23.87697 6.3356044,22.8065934 C13.0931868,19.4274725 12.6712088,16.6826374 11.8259341,12.8815385 C11.4577537,11.218784 11.3155923,9.51395636 11.4032967,7.81318681 C11.4032967,5.91230769 12.4582418,4.43406593 13.3041758,2.95582418 C13.7268132,2.3221978 14.1487912,1.47758242 14.5714286,0.845934066 C7.39120879,6.12527473 6.54659341,10.349011 5.91296703,14.3624176 C5.27934066,17.7362637 4.85736264,21.1173626 0.633626374,24.7074725 L0.633626374,24.7074725 Z" id="path-8"></path>
                    </g>
                    <g id="group-5" transform="translate(33.999560, 35.383516)">
                        <path d="M17.9505495,0.0936263736 C17.9505495,2.41648352 17.1059341,4.73934066 16.4723077,7.0621978 C14.1494505,14.6650549 13.7268132,17.1989011 6.54659341,21.4226374 C4.64571429,22.4775824 2.53450549,23.7454945 0.422637363,23.7454945 C6.12461538,19.3107692 10.9813187,14.2424176 14.3604396,7.69582418 C15.627033,5.16197802 16.4723077,2.62747253 17.9505495,0.0936263736 L17.9505495,0.0936263736 Z" id="path-9"></path>
                        <path d="M0.210989011,23.9564835 L0.210989011,23.9564835 C0,23.7454945 0,23.7454945 0,23.5338462 C6.12395604,18.6771429 10.7703297,13.6114286 13.9378022,7.69582418 C14.5714286,6.42857143 15.2050549,5.16197802 15.627033,4.10571429 C16.2606593,2.83846154 16.8942857,1.36021978 17.5279121,0.0936263736 C17.5279121,0.0936263736 17.7389011,-0.117362637 17.7389011,0.0936263736 C17.7951848,0.0925402089 17.8494841,0.114420379 17.8892901,0.154226386 C17.9290961,0.194032392 17.9509763,0.24833167 17.9498901,0.304615385 C17.9498901,2.20549451 17.3162637,4.10571429 16.8949451,5.79494505 C16.683956,6.21758242 16.683956,6.84989011 16.4723077,7.27318681 L16.4723077,7.48417582 C14.3624176,15.0863736 13.5158242,17.4092308 6.54725275,21.632967 C4.64637363,22.6879121 2.53516484,23.7428571 0.211648352,23.9558242 L0.210989011,23.9564835 Z M17.7362637,0.938241758 C17.1577527,1.9509633 16.6633454,3.00946233 16.258022,4.10307692 C15.6243956,5.37032967 15.2030769,6.63692308 14.5687912,7.90417582 C11.279741,14.052159 6.66241829,19.3902346 1.05230769,23.5305495 C2.95318681,23.3195604 4.85340659,22.2632967 6.54263736,21.2076923 C13.5164835,16.9879121 14.1487912,14.6663736 16.2606593,7.27384615 L16.2606593,7.06285714 C16.4716484,6.64021978 16.4716484,6.00791209 16.6832967,5.58461538 C17.1343332,4.06020828 17.4860599,2.50816181 17.7362637,0.938241758 L17.7362637,0.938241758 Z" id="path-10"></path>
                    </g>
                    <g id="group-6-2" transform="translate(0.000000, 31.043077)">
                        <path d="M55.7505495,0.210989011 C53.6406593,2.11186813 51.1048352,3.37582418 48.5703297,4.64571429 C38.4342857,10.3476923 27.243956,13.3041758 15.416044,12.6725275 C12.0369231,12.4615385 7.39120879,10.1386813 4.64571429,8.66043956 C6.54659341,14.7824176 14.5707692,25.9747253 20.9063736,27.8749451 C13.0925275,27.8749451 2.74549451,14.3584615 3.8010989,8.02417582 C2.53384615,6.33494505 0.633626374,4.64571429 0.210989011,2.53384615 C5.70131868,9.50241758 25.9747253,8.6578022 33.5736264,7.39120879 C40.7571429,6.12395604 48.992967,3.16747253 55.7505495,0.210989011 L55.7505495,0.210989011 Z" id="path-11"></path>
                        <path d="M20.9063736,28.0879121 L20.9063736,28.0879121 C17.3162637,28.0879121 12.8815385,25.3424176 9.08043956,20.6967033 C5.27934066,16.2606593 3.16483516,11.1923077 3.59010989,8.23582418 C3.30292844,7.76365903 2.94742611,7.33661186 2.53516484,6.96857143 C1.41882817,5.7426223 0.557101997,4.30715906 0,2.74549451 L0,2.53450549 L0.210989011,2.53450549 C5.70197802,9.50307692 26.6083516,8.44681319 33.3626374,7.18021978 C40.7538462,5.91296703 48.989011,2.74549451 55.5362637,0 L55.7472527,0 L55.7472527,0.210989011 C53.7302526,1.85981028 51.5342611,3.27662177 49.2006593,4.43472527 L48.778022,4.85736264 C38.0076923,10.7703297 26.8153846,13.5158242 15.4153846,12.8821978 C12.8815385,12.6712088 9.50241758,11.403956 4.8567033,9.0810989 C6.96659341,15.2050549 14.5707692,25.7624176 20.9063736,27.6646154 C21.1173626,27.6646154 21.1173626,27.8756044 20.9063736,28.0872527 L20.9063736,28.0879121 Z M0.633626374,3.37912088 C1.18729903,4.52649425 1.89735363,5.59157615 2.74351648,6.54395604 C3.15577776,6.91199647 3.51128008,7.33904364 3.79846154,7.81120879 L3.79846154,8.0221978 C3.37582418,10.9786813 5.48769231,15.836044 9.28879121,20.2701099 C12.6679121,24.2821978 16.469011,26.8167033 19.4254945,27.4503297 C13.3041758,24.4964835 6.12395604,14.3597802 4.43472527,8.65846154 L4.43472527,8.44747253 L4.64571429,8.44747253 C9.50307692,10.9813187 12.8815385,12.2485714 15.416044,12.4595604 C26.6083516,13.0931868 37.8006593,10.5586813 48.570989,4.64571429 L49.2046154,4.22307692 C51.1087806,3.22171134 52.9430725,2.09276385 54.6949451,0.843956044 C48.3593407,3.3778022 40.5461538,6.33428571 33.5775824,7.60153846 C27.7786972,8.47666838 21.9058324,8.7596634 16.0496703,8.44615385 C10.7703297,8.02483516 4.01208791,6.75758242 0.633626374,3.37912088 L0.633626374,3.37912088 Z" id="path-12"></path>
                    </g>
                    <g id="group-7-2" transform="translate(12.643516, 9.080440)">
                        <path d="M2.77252747,0 C0.662637363,6.54659341 8.05186813,13.7268132 7.41824176,17.3162637 C6.99626374,19.8507692 1.92791209,23.2292308 0.238021978,25.5520879 C0.871648352,23.2292308 2.56087912,20.6947253 2.98351648,18.3718681 C3.61714286,13.5164835 -3.56241758,4.43472527 2.77252747,0 L2.77252747,0 Z" id="path-13"></path>
                        <path d="M0.238681319,25.7637363 L0.238681319,25.7637363 C0.182397604,25.7648224 0.128098326,25.7429423 0.0882923196,25.7031363 C0.0484863129,25.6633302 0.026606143,25.609031 0.0276923077,25.5527473 C0.398399479,24.5457657 0.82116695,23.5587214 1.29428571,22.5956044 C1.94124857,21.2464987 2.43700985,19.8299748 2.77252747,18.3718681 C2.98351648,16.6826374 2.34989011,14.5707692 1.50527473,12.0362637 C0.027032967,7.81384615 -1.45120879,2.74549451 2.77252747,0 L2.98351648,0 L2.98351648,0.210989011 C1.71692308,4.01208791 3.82813187,8.23582418 5.51802198,11.4065934 C6.78527473,13.7294505 7.84087912,15.8413187 7.4189011,17.3195604 C6.99626374,19.0087912 4.88505495,20.9096703 2.98417582,22.8098901 C2.00872815,23.7376364 1.09180071,24.725029 0.238681319,25.7663736 L0.238681319,25.7637363 Z M2.56153846,0.633626374 C-1.02857143,3.37912088 0.451648352,7.81384615 1.71692308,12.0402198 C2.56153846,14.3630769 3.19516484,16.6859341 2.98417582,18.3758242 C2.68313053,19.910235 2.18609039,21.3995827 1.50527473,22.8072527 C1.29428571,23.4408791 0.871648352,24.0745055 0.660659341,24.7081319 L2.77054945,22.5982418 C4.67142857,20.909011 6.78263736,18.7971429 7.20527473,17.3189011 C7.41626374,16.0516484 6.36065934,13.9397802 5.3043956,11.6169231 C3.61714286,8.44681319 1.50527473,4.43472527 2.56153846,0.633626374 L2.56153846,0.633626374 Z" id="path-14"></path>
                    </g>
                    <g id="group-8" transform="translate(4.112967, 17.316264)">
                        <path d="M1.37736264,0 C7.71296703,4.01208791 2.64461538,11.1923077 4.75648352,14.7824176 C3.61461087,14.4334261 2.59143582,13.7755729 1.8,12.8815385 C-1.79010989,9.29142857 1.37736264,8.44681319 1.8,5.06769231 C2.22197802,3.59010989 1.8,1.47824176 1.37736264,0 L1.37736264,0 Z" id="path-15"></path>
                        <path d="M4.75648352,14.9934066 L4.75648352,14.9934066 C3.48923077,14.7824176 2.64659341,13.9384615 1.8,13.0925275 C-0.733846154,10.5586813 -0.100879121,9.29142857 0.745054945,7.81318681 C1.22248161,6.95144698 1.57754184,6.02740275 1.8,5.06769231 C2.01230769,3.59010989 1.37736264,1.05494505 1.16637363,0.210989011 L1.16637363,0 L1.37736264,0 C5.38945055,2.53384615 4.96747253,6.3356044 4.5421978,9.71406593 C4.33120879,11.823956 4.11956044,13.5151648 4.96483516,14.9934066 C4.96483516,14.7824176 4.96483516,14.9934066 4.75384615,14.9934066 L4.75648352,14.9934066 Z M1.59164835,0.421978022 C2.11174682,1.91251314 2.32721547,3.49231761 2.22527473,5.06769231 C2.07944611,6.0492064 1.71926932,6.98656649 1.17032967,7.81318681 C0.321758242,9.29208791 -0.0975824176,10.3476923 2.01230769,12.6705495 C2.56898937,13.530769 3.38070547,14.1954033 4.33384615,14.5714286 C3.70021978,13.0931868 3.91120879,11.4065934 4.12285714,9.50307692 C4.54483516,6.3356044 4.96747253,2.95648352 1.58835165,0.422637363 L1.59164835,0.421978022 Z" id="path-16"></path>
                    </g>
                </g>
                <path d="M84.7958242,52.0786813 L86.0043956,55.0457143 L86.5892308,55.0457143 L82.8210989,45.7246154 L79.0397802,55.0463736 L79.6259341,55.0463736 L80.8345055,52.0793407 L84.7958242,52.0786813 Z M84.5802198,51.54 L81.0507692,51.54 L82.8210989,47.1843956 L84.5802198,51.54 Z M89.6657143,49.5178022 L89.1276923,49.5178022 L89.1276923,55.0463736 L89.6663736,55.0463736 L89.6663736,52.0068132 C89.6663736,51.1094505 89.881978,49.9008791 91.0424176,49.9008791 C92.1191209,49.9008791 92.2747253,50.7745055 92.2747253,51.6362637 L92.2747253,55.0463736 L92.8134066,55.0463736 L92.8134066,51.8624176 C92.8134066,50.9050549 93.0883516,49.9002198 94.2375824,49.9002198 C95.2925275,49.9002198 95.4243956,50.6538462 95.4243956,51.5037363 L95.4243956,55.0463736 L95.9630769,55.0463736 L95.9630769,51.5762637 C95.9630769,50.3676923 95.6756044,49.4004396 94.2487912,49.4004396 C93.5559454,49.3758738 92.9172567,49.7734249 92.6334066,50.4059341 C92.3743904,49.7800144 91.7550991,49.3796671 91.078022,49.4004396 C90.4974164,49.3841729 89.9581879,49.6998313 89.6881319,50.2140659 L89.6643956,50.2140659 L89.6657143,49.5178022 Z M102.038901,54.6606593 C101.424544,54.6508869 100.841713,54.3869315 100.429134,53.9316203 C100.016555,53.4763091 99.8111316,52.8703671 99.8617582,52.258022 C99.8070846,51.6449392 100.015919,51.0375611 100.436054,50.5877315 C100.856188,50.1379019 101.447913,49.8881375 102.063297,49.9008791 C102.660073,49.925876 103.222429,50.1871037 103.626471,50.6270102 C104.030512,51.0669168 104.243087,51.6494082 104.217363,52.2461538 C104.262986,52.8588584 104.056178,53.463586 103.644918,53.9200435 C103.233658,54.3765011 102.653689,54.6450168 102.03956,54.6632967 L102.038901,54.6606593 Z M99.3586813,55.0437363 L99.8973626,55.0437363 L99.8973626,54.0534066 L99.9210989,54.0534066 C100.386684,54.7599815 101.18096,55.1797491 102.027033,55.1663736 C102.785459,55.169622 103.510894,54.8564975 104.028734,54.3023659 C104.546575,53.7482344 104.809919,53.0032828 104.755385,52.2468132 C104.808685,51.5016509 104.546071,50.7684381 104.031793,50.2265651 C103.517515,49.6846921 102.799017,49.3841467 102.052088,49.3984615 C101.206807,49.3821774 100.408588,49.7865987 99.9217582,50.4778022 L99.898022,50.4778022 L99.898022,45.1767033 L99.3593407,45.1767033 L99.3586813,55.0437363 Z M108.358022,49.5178022 L107.82,49.5178022 L107.82,55.0463736 L108.358681,55.0463736 L108.358022,49.5178022 Z M108.094286,47.1843956 C107.823813,47.1854797 107.60482,47.4044724 107.603736,47.6749451 C107.60231,47.805479 107.653534,47.9310829 107.745841,48.0233898 C107.838148,48.1156968 107.963752,48.1669212 108.094286,48.1654945 C108.22482,48.1669212 108.350424,48.1156968 108.44273,48.0233898 C108.535037,47.9310829 108.586262,47.805479 108.584835,47.6749451 C108.583754,47.4047282 108.36516,47.1858404 108.094945,47.1843956 L108.094286,47.1843956 Z M112.567253,50.0202198 L113.536484,50.0202198 L113.536484,49.5178022 L112.567253,49.5178022 L112.567253,47.5437363 L112.028571,47.5437363 L112.028571,49.5184615 L111.418022,49.5184615 L111.418022,50.0208791 L112.028571,50.0208791 L112.028571,55.0463736 L112.567253,55.0463736 L112.567253,50.0202198 Z M116.767253,49.5178022 L116.228571,49.5178022 L116.228571,55.0463736 L116.767253,55.0463736 L116.767253,49.5178022 Z M116.503516,47.1843956 C116.233044,47.1854797 116.014051,47.4044724 116.012967,47.6749451 C116.01154,47.805479 116.062765,47.9310829 116.155072,48.0233898 C116.247379,48.1156968 116.372983,48.1669212 116.503516,48.1654945 C116.63405,48.1669212 116.759654,48.1156968 116.851961,48.0233898 C116.944268,47.9310829 116.995493,47.805479 116.994066,47.6749451 C116.993005,47.4060012 116.776399,47.1876338 116.507473,47.1843956 L116.503516,47.1843956 Z M122.721099,49.3984615 C121.128334,49.3984615 119.837143,50.6896526 119.837143,52.2824176 C119.837143,53.8751825 121.128334,55.1663736 122.721099,55.1663736 C123.492541,55.1810374 124.237042,54.8826836 124.784863,54.3393339 C125.332685,53.7959843 125.637131,53.0539536 125.628791,52.2824176 C125.637131,51.5108816 125.332685,50.7688509 124.784863,50.2255012 C124.237042,49.6821516 123.492541,49.3837978 122.721099,49.3984615 L122.721099,49.3984615 Z M122.685495,49.9008791 C123.325776,49.8860457 123.944401,50.133047 124.398389,50.5847948 C124.852377,51.0365425 125.102435,51.6539382 125.090769,52.2942857 C125.090769,53.5930045 124.03795,54.6458242 122.739231,54.6458242 C121.440512,54.6458242 120.387692,53.5930045 120.387692,52.2942857 C120.373909,51.6724406 120.608061,51.0706548 121.038506,50.621657 C121.46895,50.1726591 122.060325,49.9133344 122.682198,49.9008791 L122.685495,49.9008791 Z M131.83978,49.5178022 L131.83978,52.6410989 C131.83978,53.7059341 131.72044,54.6632967 130.389231,54.6632967 C129.058022,54.6632967 128.938681,53.7059341 128.938681,52.6410989 L128.938681,49.5178022 L128.4,49.5178022 L128.4,52.832967 C128.332754,53.3859499 128.450534,53.9456348 128.734945,54.4246154 C129.154114,54.8964701 129.755115,55.1664692 130.386264,55.1664692 C131.017413,55.1664692 131.618414,54.8964701 132.037582,54.4246154 C132.321993,53.9456348 132.439773,53.3859499 132.372527,52.832967 L132.372527,49.5178022 L131.83978,49.5178022 Z M138.479341,50.283956 C138.205224,49.7533756 137.664036,49.4140595 137.067033,49.3984615 C136.67989,49.3784056 136.301108,49.5158678 136.016934,49.779548 C135.732761,50.0432282 135.567385,50.4106825 135.558462,50.7982418 C135.558462,51.7318681 136.42022,52.0549451 137.173846,52.3298901 C137.724396,52.5210989 138.250549,52.7367033 138.250549,53.4191209 C138.252851,53.749972 138.122439,54.06794 137.888486,54.3018927 C137.654533,54.5358454 137.336565,54.666258 137.005714,54.663956 C136.338399,54.6625633 135.763757,54.192827 135.62967,53.5391209 L135.102198,53.7065934 C135.311431,54.5819699 136.105358,55.191032 137.005055,55.1663736 C137.473426,55.1872003 137.929773,55.014623 138.267158,54.6890826 C138.604543,54.3635421 138.793313,53.9136514 138.789231,53.4448352 C138.789231,51.4463736 136.096484,52.0925275 136.096484,50.7646154 C136.137174,50.2736978 136.549391,49.8971259 137.041978,49.9008791 C137.459808,49.8980986 137.839904,50.1421872 138.011209,50.5232967 L138.479341,50.283956 Z M147.538022,50.0202198 L148.925934,50.0202198 L148.925934,49.5178022 L147.538022,49.5178022 L147.538022,47.1487912 C147.538022,46.4545055 147.54989,45.5215385 148.483516,45.5215385 C148.632987,45.532828 148.781218,45.5568715 148.926593,45.5934066 L148.926593,45.1028571 C148.773701,45.0451564 148.611313,45.0167498 148.447912,45.0191209 C147.946063,45.0024532 147.47452,45.2587869 147.215604,45.689011 C147.041719,46.1174872 146.967977,46.5800136 147,47.0413187 L147,49.5184615 L146.389451,49.5184615 L146.389451,50.0208791 L147,50.0208791 L147,55.0463736 L147.538681,55.0463736 L147.538022,50.0202198 Z M153.760879,49.3978022 C152.168114,49.3978022 150.876923,50.6889933 150.876923,52.2817582 C150.876923,53.8745232 152.168114,55.1657143 153.760879,55.1657143 C154.532321,55.180378 155.276822,54.8820242 155.824644,54.3386746 C156.372465,53.795325 156.676912,53.0532943 156.668571,52.2817582 C156.676741,51.5101027 156.372036,50.7680364 155.823946,50.2247908 C155.275855,49.6815452 154.531113,49.3834408 153.75956,49.3984615 L153.760879,49.3978022 Z M153.725275,49.9002198 C154.365557,49.8853863 154.984182,50.1323877 155.43817,50.5841354 C155.892157,51.0358832 156.142216,51.6532789 156.130549,52.2936264 C156.130549,53.5923452 155.07773,54.6451648 153.779011,54.6451648 C152.480292,54.6451648 151.427473,53.5923452 151.427473,52.2936264 C151.413869,51.6716701 151.64828,51.0698573 152.078989,50.6209649 C152.509698,50.1720725 153.10131,49.9129903 153.723297,49.9008791 L153.725275,49.9002198 Z M160.067473,49.5171429 L159.528791,49.5171429 L159.528791,55.0463736 L160.067473,55.0463736 L160.067473,52.2224176 C160.067473,51.4087912 159.995604,49.9008791 161.204176,49.9008791 C161.339268,49.9011832 161.471717,49.9383418 161.587253,50.0083516 L161.874725,49.5296703 C161.691181,49.4438273 161.491195,49.398836 161.288571,49.3978022 C160.751389,49.391457 160.269961,49.7283239 160.091868,50.2351648 L160.068132,50.2351648 L160.067473,49.5171429 Z M174.475385,52.3292308 C174.487253,50.7375824 173.494286,49.3971429 171.818901,49.3971429 C171.077162,49.4071203 170.371649,49.719488 169.865665,50.2619422 C169.359682,50.8043964 169.097093,51.5299103 169.138681,52.2705495 C169.059289,53.5622607 169.898273,54.7320315 171.147236,55.0710176 C172.3962,55.4100037 173.711474,54.8249287 174.296044,53.6703297 L173.841099,53.4065934 C173.480455,54.160173 172.726028,54.6462915 171.890769,54.6632967 C171.276902,54.6817189 170.684296,54.4375589 170.261573,53.9920508 C169.83885,53.5465427 169.626109,52.9419459 169.676703,52.3298901 L174.475385,52.3292308 Z M169.676703,51.8268132 C169.787346,50.7334903 170.707796,49.9014878 171.806703,49.9014878 C172.90561,49.9014878 173.82606,50.7334903 173.936703,51.8268132 L169.676703,51.8268132 Z M178.70967,52.1261538 L176.457363,55.0463736 L177.091648,55.0463736 L179.053846,52.5092308 L181.028571,55.0463736 L181.662857,55.0463736 L179.415824,52.1261538 L181.474286,49.5171429 L180.828132,49.5171429 L179.057143,51.7549451 L177.298022,49.5171429 L176.651868,49.5171429 L178.70967,52.1261538 Z M188.426374,50.0821978 C187.888222,49.6285461 187.203497,49.3860103 186.49978,49.3997802 C185.737464,49.3906974 185.004053,49.6911555 184.467217,50.232465 C183.930381,50.7737745 183.63602,51.5096534 183.651429,52.2718681 C183.628257,53.0362081 183.917504,53.7769966 184.452469,54.3234076 C184.987434,54.8698185 185.721934,55.1746805 186.486593,55.1676923 C187.227495,55.1648373 187.942049,54.8925145 188.496923,54.4015385 L188.496923,53.6703297 C188.000652,54.2877739 187.254937,54.6518089 186.462857,54.6632967 C185.176832,54.6241531 184.16245,53.5562278 184.189451,52.2698901 C184.169973,50.9843068 185.193837,49.925066 186.479341,49.9008791 C187.228666,49.8994407 187.940708,50.2276117 188.426374,50.7982418 L188.426374,50.0821978 Z M196.252747,52.3318681 C196.264615,50.7402198 195.271648,49.3997802 193.596264,49.3997802 C192.854767,49.4097745 192.149469,49.7219615 191.643526,50.264123 C191.137584,50.8062845 190.874829,51.5314504 190.916044,52.2718681 C190.836651,53.5635793 191.675636,54.7333502 192.924599,55.0723363 C194.173562,55.4113223 195.488837,54.8262474 196.073407,53.6716484 L195.618462,53.4079121 C195.257246,54.1617115 194.50188,54.6474315 193.666154,54.6632967 C193.052287,54.6817189 192.459681,54.4375589 192.036958,53.9920508 C191.614235,53.5465427 191.401493,52.9419459 191.452088,52.3298901 L196.252747,52.3318681 Z M191.454066,51.8294505 C191.564709,50.7361277 192.485159,49.9041252 193.584066,49.9041252 C194.682973,49.9041252 195.603423,50.7361277 195.714066,51.8294505 L191.454066,51.8294505 Z M199.651648,45.1740659 L199.112967,45.1740659 L199.112967,55.0463736 L199.651648,55.0463736 L199.651648,45.1740659 Z M203.588571,45.1740659 L203.04989,45.1740659 L203.04989,55.0463736 L203.588571,55.0463736 L203.588571,45.1740659 Z M211.785495,52.3298901 C211.797363,50.7382418 210.804396,49.3978022 209.129011,49.3978022 C208.387514,49.4077965 207.682216,49.7199835 207.176274,50.262145 C206.670331,50.8043064 206.407576,51.5294724 206.448791,52.2698901 C206.369399,53.5616013 207.208383,54.7313721 208.457346,55.0703582 C209.70631,55.4093443 211.021584,54.8242693 211.606154,53.6696703 L211.151209,53.4059341 C210.790685,54.1596191 210.036184,54.6457846 209.200879,54.6626374 C208.586798,54.6816158 207.99377,54.4377958 207.570626,53.9923683 C207.147483,53.5469408 206.934393,52.9421904 206.984835,52.3298901 L211.785495,52.3298901 Z M206.984835,51.8274725 C207.095478,50.7341497 208.015928,49.9021471 209.114835,49.9021471 C210.213742,49.9021471 211.134192,50.7341497 211.244835,51.8274725 L206.984835,51.8274725 Z M215.181758,49.5197802 L214.643077,49.5197802 L214.643077,55.0463736 L215.181758,55.0463736 L215.181758,52.318022 C215.181758,51.1931868 215.409231,49.9008791 216.797143,49.9008791 C218.008352,49.9008791 218.127692,50.7145055 218.127692,51.7081319 L218.127692,55.0463736 L218.666374,55.0463736 L218.666374,51.7081319 C218.666374,50.283956 218.270769,49.4004396 216.847253,49.4004396 C216.158811,49.3893322 215.523609,49.7695337 215.208132,50.3815385 L215.184396,50.3815385 L215.181758,49.5197802 Z M226.303516,50.0821978 C225.765364,49.6285461 225.08064,49.3860103 224.376923,49.3997802 C223.61472,49.3908774 222.881482,49.6914148 222.34479,50.2327042 C221.808098,50.7739936 221.513827,51.5097691 221.529231,52.2718681 C221.506059,53.0362081 221.795306,53.7769966 222.330271,54.3234076 C222.865236,54.8698185 223.599736,55.1746805 224.364396,55.1676923 C225.105297,55.1648373 225.819851,54.8925145 226.374725,54.4015385 L226.374725,53.6703297 C225.878455,54.2877739 225.132739,54.6518089 224.340659,54.6632967 C223.054634,54.6241531 222.040252,53.5562278 222.067253,52.2698901 C222.047389,50.9855647 223.068978,49.926554 224.353187,49.9002198 C225.10377,49.8979754 225.81723,50.2264855 226.303516,50.7982418 L226.303516,50.0821978 Z M234.12989,52.3318681 C234.141758,50.7402198 233.148791,49.3997802 231.473407,49.3997802 C230.73191,49.4097745 230.026612,49.7219615 229.520669,50.264123 C229.014727,50.8062845 228.751971,51.5314504 228.793187,52.2718681 C228.713794,53.5635793 229.552779,54.7333502 230.801742,55.0723363 C232.050705,55.4113223 233.365979,54.8262474 233.950549,53.6716484 L233.495604,53.4079121 C233.134961,54.1614917 232.380533,54.6476101 231.545275,54.6646154 C230.931408,54.6830376 230.338802,54.4388776 229.916079,53.9933695 C229.493356,53.5478614 229.280614,52.9432646 229.331209,52.3312088 L234.12989,52.3318681 Z M229.331209,51.8294505 C229.441852,50.7361277 230.362302,49.9041252 231.461209,49.9041252 C232.560116,49.9041252 233.480566,50.7361277 233.591209,51.8294505 L229.331209,51.8294505 Z M242.997363,49.5217582 L242.457363,49.5217582 L242.457363,55.0463736 L242.996044,55.0463736 L242.997363,49.5217582 Z M242.733626,47.1883516 C242.463154,47.1894357 242.244161,47.4084284 242.243077,47.6789011 C242.24165,47.8094351 242.292875,47.9350389 242.385182,48.0273459 C242.477489,48.1196528 242.603092,48.1708773 242.733626,48.1694505 C242.86416,48.1708773 242.989764,48.1196528 243.082071,48.0273459 C243.174378,47.9350389 243.225603,47.8094351 243.224176,47.6789011 C243.224702,47.547818 243.172953,47.4219326 243.080387,47.3291184 C242.98782,47.2363042 242.862073,47.1842191 242.730989,47.1843956 L242.733626,47.1883516 Z M247.151209,49.5217582 L246.611209,49.5217582 L246.611209,55.0463736 L247.14989,55.0463736 L247.14989,52.318022 C247.14989,51.1931868 247.377363,49.9008791 248.765275,49.9008791 C249.973846,49.9008791 250.093846,50.7145055 250.093846,51.7081319 L250.093846,55.0463736 L250.632527,55.0463736 L250.632527,51.7081319 C250.632527,50.283956 250.236923,49.4004396 248.813407,49.4004396 C248.124965,49.3893322 247.489763,49.7695337 247.174286,50.3815385 L247.150549,50.3815385 L247.151209,49.5217582 Z M261.439121,49.9048352 C262.043044,49.8912687 262.625256,50.130218 263.045526,50.5641301 C263.465796,50.9980423 263.686032,51.5875876 263.653187,52.1907692 C263.653187,53.5193407 262.887033,54.6679121 261.477363,54.6679121 C260.864361,54.6468864 260.286264,54.3774869 259.875905,53.9216155 C259.465546,53.4657442 259.25821,52.8625991 259.301538,52.2507692 C259.248084,51.014937 260.199925,49.9666171 261.435165,49.9008791 L261.439121,49.9048352 Z M264.155604,49.5217582 L263.616923,49.5217582 L263.616923,50.4778022 L263.593187,50.4778022 C263.105769,49.7875978 262.307649,49.3842151 261.462857,49.4010989 C260.715305,49.3847337 259.995568,49.6846454 259.480832,50.2270007 C258.966097,50.7693561 258.70418,51.5037731 258.75956,52.2494505 C258.705026,53.0059201 258.968371,53.7508717 259.486211,54.3050033 C260.004051,54.8591349 260.729486,55.1722593 261.487912,55.169011 C262.333985,55.1823865 263.128261,54.7626189 263.593846,54.056044 L263.617582,54.056044 L263.617582,55.0463736 L264.156264,55.0463736 L264.155604,49.5217582 Z M268.092527,45.178022 L267.553846,45.178022 L267.553846,55.0463736 L268.092527,55.0463736 L268.092527,45.178022 Z M272.029451,45.178022 L271.490769,45.178022 L271.490769,55.0463736 L272.029451,55.0463736 L272.029451,45.178022 Z M280.381978,49.5217582 L279.831429,49.5217582 L282.32044,55.3496703 L284.258901,50.5747253 L286.209231,55.3496703 L288.71011,49.5217582 L288.15956,49.5217582 L286.247473,54.0573626 L284.279341,49.2184615 L282.329011,54.0527473 L280.381978,49.5217582 Z M296.046593,52.3338462 C296.058462,50.7421978 295.065495,49.4017582 293.39011,49.4017582 C292.648613,49.4117525 291.943315,49.7239395 291.437373,50.266101 C290.93143,50.8082625 290.668675,51.5334285 290.70989,52.2738462 C290.635965,53.5621546 291.474728,54.7260762 292.720247,55.063547 C293.965765,55.4010177 295.277387,54.8197383 295.863956,53.6703297 L295.409011,53.4065934 C295.048367,54.160173 294.29394,54.6462915 293.458681,54.6632967 C292.844814,54.6817189 292.252208,54.4375589 291.829485,53.9920508 C291.406762,53.5465427 291.194021,52.9419459 291.244615,52.3298901 L296.046593,52.3338462 Z M291.247912,51.8314286 C291.358555,50.7381057 292.279005,49.9061032 293.377912,49.9061032 C294.476819,49.9061032 295.397269,50.7381057 295.507912,51.8314286 L291.247912,51.8314286 Z M306.346813,54.6665934 C305.733812,54.6455677 305.155715,54.3761682 304.745356,53.9202969 C304.334997,53.4644255 304.127661,52.8612804 304.170989,52.2494505 C304.120248,51.0122084 305.076419,49.9653937 306.313187,49.9041758 C306.915704,49.891801 307.496199,50.1307079 307.915462,50.5636043 C308.334724,50.9965007 308.554939,51.5843404 308.523297,52.1861538 C308.523297,53.5147253 307.757802,54.6632967 306.347473,54.6632967 L306.346813,54.6665934 Z M308.489011,55.0496703 L309.027692,55.0496703 L309.027692,45.1740659 L308.489011,45.1740659 L308.489011,50.4778022 L308.465275,50.4778022 C307.977857,49.7875978 307.179737,49.3842151 306.334945,49.4010989 C305.587393,49.3847337 304.867656,49.6846454 304.35292,50.2270007 C303.838185,50.7693561 303.576268,51.5037731 303.631648,52.2494505 C303.577114,53.0059201 303.840458,53.7508717 304.358299,54.3050033 C304.876139,54.8591349 305.601574,55.1722593 306.36,55.169011 C307.206073,55.1823865 308.000349,54.7626189 308.465934,54.056044 L308.48967,54.056044 L308.489011,55.0496703 Z M314.759341,49.4010989 C313.166576,49.4010989 311.875385,50.69229 311.875385,52.2850549 C311.875385,53.8778199 313.166576,55.169011 314.759341,55.169011 C315.530782,55.1836747 316.275284,54.8853209 316.823105,54.3419713 C317.370927,53.7986217 317.675373,53.056591 317.667033,52.2850549 C317.676101,51.5128308 317.371793,50.7699044 316.823602,50.2259382 C316.275411,49.681972 315.530153,49.3834195 314.758022,49.3984615 L314.759341,49.4010989 Z M314.723736,49.9035165 C315.364018,49.888683 315.982643,50.1356844 316.436631,50.5874321 C316.890619,51.0391799 317.140677,51.6565756 317.129011,52.2969231 C317.129011,53.5956419 316.076191,54.6484615 314.777473,54.6484615 C313.478754,54.6484615 312.425934,53.5956419 312.425934,52.2969231 C312.41144,51.6745147 312.645366,51.07195 313.076029,50.6223588 C313.506691,50.1727676 314.098643,49.9131549 314.721099,49.9008791 L314.723736,49.9035165 Z" id="Ambitious_for_e" stroke-opacity="0" stroke="#000000" fill="#FFFFFF"></path>
            </g>
        </g>
    </g>
</svg>